<svg xmlns="http://www.w3.org/2000/svg" xmlns:xlink="http://www.w3.org/1999/xlink" width="1080" zoomAndPan="magnify" viewBox="0 0 810 809.999993" height="1080" preserveAspectRatio="xMidYMid meet" version="1.0"><defs><g/><clipPath id="8aa1fff4df"><path d="M 143.742188 44.488281 L 577.992188 44.488281 L 577.992188 478.738281 L 143.742188 478.738281 Z M 143.742188 44.488281 " clip-rule="nonzero"/></clipPath></defs><g clip-path="url(#8aa1fff4df)"><path fill="#004aad" d="M 360.695312 44.46875 C 480.058594 44.46875 577.648438 142.0625 577.648438 261.421875 C 577.648438 380.785156 480.058594 478.375 360.695312 478.375 C 241.335938 478.375 143.742188 380.785156 143.742188 261.421875 C 143.742188 142.0625 241.335938 44.46875 360.695312 44.46875 Z M 360.695312 44.46875 " fill-opacity="1" fill-rule="evenodd"/></g><path fill="#fffffe" d="M 306.878906 293.679688 L 394.542969 293.679688 L 401.445312 246.902344 L 301.34375 246.902344 Z M 363.058594 260.613281 C 363.058594 259.171875 364.226562 258.007812 365.667969 258.007812 C 367.105469 258.007812 368.273438 259.171875 368.273438 260.613281 L 368.273438 278.71875 C 368.273438 280.15625 367.109375 281.324219 365.667969 281.324219 C 364.226562 281.324219 363.058594 280.15625 363.058594 278.71875 Z M 349.136719 260.613281 C 349.136719 259.171875 350.300781 258.007812 351.742188 258.007812 C 353.183594 258.007812 354.351562 259.171875 354.351562 260.613281 L 354.351562 278.71875 C 354.351562 280.15625 353.183594 281.324219 351.742188 281.324219 C 350.304688 281.324219 349.136719 280.15625 349.136719 278.71875 Z M 335.207031 260.613281 C 335.207031 259.171875 336.375 258.007812 337.816406 258.007812 C 339.257812 258.007812 340.425781 259.171875 340.425781 260.613281 L 340.425781 278.71875 C 340.425781 280.15625 339.257812 281.324219 337.816406 281.324219 C 336.375 281.324219 335.207031 280.15625 335.207031 278.71875 Z M 335.207031 260.613281 " fill-opacity="1" fill-rule="evenodd"/><path fill="#fffffe" d="M 448.015625 242.210938 C 428.371094 242.617188 411.066406 225.3125 411.472656 205.671875 C 411.472656 194.734375 416.363281 184.441406 424.703125 177.53125 C 404.652344 160.289062 379.191406 150.832031 352.640625 150.832031 C 291.660156 150.832031 242.050781 200.441406 242.050781 261.421875 C 242.050781 322.402344 291.660156 372.011719 352.640625 372.011719 C 413.621094 372.011719 463.234375 322.402344 463.234375 261.421875 C 463.234375 254.136719 462.523438 246.875 461.121094 239.789062 C 456.953125 241.398438 452.558594 242.210938 448.015625 242.210938 Z M 325.304688 195.921875 C 333.460938 188.707031 343.953125 184.734375 354.855469 184.734375 C 365.832031 184.734375 376.378906 188.757812 384.5625 196.0625 C 385.636719 197.023438 385.726562 198.671875 384.769531 199.746094 C 384.253906 200.320312 383.539062 200.617188 382.824219 200.617188 C 382.207031 200.617188 381.585938 200.398438 381.085938 199.953125 C 373.863281 193.503906 364.546875 189.949219 354.855469 189.949219 C 345.226562 189.949219 335.960938 193.457031 328.761719 199.828125 C 327.683594 200.785156 326.035156 200.683594 325.082031 199.605469 C 324.125 198.523438 324.226562 196.875 325.304688 195.921875 Z M 354.855469 208.375 C 349.730469 208.375 344.800781 210.242188 340.96875 213.632812 C 339.890625 214.589844 338.242188 214.488281 337.289062 213.410156 C 336.335938 212.332031 336.433594 210.683594 337.511719 209.730469 C 342.296875 205.492188 348.453125 203.160156 354.851562 203.160156 C 361.296875 203.160156 367.488281 205.523438 372.289062 209.8125 C 373.363281 210.769531 373.453125 212.417969 372.496094 213.492188 C 371.980469 214.070312 371.265625 214.363281 370.550781 214.363281 C 369.933594 214.363281 369.3125 214.144531 368.8125 213.699219 C 364.96875 210.265625 360.011719 208.375 354.855469 208.375 Z M 361.648438 225.640625 C 360.683594 226.71875 359.035156 226.804688 357.964844 225.847656 C 357.109375 225.082031 356.007812 224.660156 354.851562 224.660156 C 353.707031 224.660156 352.609375 225.078125 351.757812 225.832031 C 350.679688 226.789062 349.03125 226.691406 348.078125 225.613281 C 347.121094 224.535156 347.21875 222.886719 348.296875 221.933594 C 350.105469 220.328125 352.433594 219.445312 354.855469 219.445312 C 357.292969 219.445312 359.628906 220.339844 361.441406 221.960938 C 362.515625 222.921875 362.605469 224.570312 361.648438 225.640625 Z M 326.578125 342.148438 C 321.027344 342.148438 316.515625 337.636719 316.515625 332.089844 C 316.515625 326.539062 321.03125 322.027344 326.578125 322.027344 C 332.125 322.027344 336.640625 326.539062 336.640625 332.089844 C 336.640625 337.636719 332.125 342.148438 326.578125 342.148438 Z M 375.675781 342.148438 C 370.125 342.148438 365.613281 337.636719 365.613281 332.089844 C 365.613281 326.539062 370.125 322.027344 375.675781 322.027344 C 381.222656 322.027344 385.734375 326.539062 385.734375 332.089844 C 385.734375 337.636719 381.222656 342.148438 375.675781 342.148438 Z M 407.042969 244.679688 L 399.375 296.667969 C 399.183594 297.949219 398.089844 298.894531 396.792969 298.894531 L 307.449219 298.894531 L 308.578125 309.875 L 397.449219 309.875 C 398.890625 309.875 400.054688 311.039062 400.054688 312.480469 C 400.054688 313.921875 398.890625 315.089844 397.449219 315.089844 L 306.226562 315.089844 C 304.886719 315.089844 303.769531 314.078125 303.632812 312.75 L 294.523438 233.613281 L 276.382812 234.0625 C 274.945312 234.097656 273.75 232.960938 273.714844 231.519531 C 273.679688 230.082031 274.816406 228.882812 276.253906 228.847656 L 296.769531 228.34375 C 298.117188 228.308594 299.261719 229.304688 299.421875 230.644531 L 300.726562 241.691406 L 404.464844 241.691406 C 405.222656 241.691406 405.941406 242.019531 406.4375 242.59375 C 406.933594 243.167969 407.15625 243.925781 407.042969 244.679688 Z M 407.042969 244.679688 " fill-opacity="1" fill-rule="evenodd"/><path fill="#fffffe" d="M 448.015625 174.34375 C 441.648438 174.34375 435.519531 176.242188 430.292969 179.835938 C 421.773438 185.6875 416.6875 195.347656 416.6875 205.671875 C 416.6875 222.945312 430.742188 237 448.015625 237 C 452.875 237 457.527344 235.917969 461.851562 233.785156 C 472.640625 228.464844 479.34375 217.691406 479.34375 205.671875 C 479.34375 188.394531 465.289062 174.34375 448.015625 174.34375 Z M 465.121094 200.714844 C 464.855469 201.359375 464.335938 201.871094 463.6875 202.132812 L 437.9375 212.523438 C 440.242188 216.09375 444.273438 218.363281 448.617188 218.363281 C 452.601562 218.363281 456.277344 216.542969 458.703125 213.375 C 459.578125 212.230469 461.214844 212.011719 462.359375 212.890625 C 463.503906 213.765625 463.722656 215.402344 462.84375 216.542969 C 459.425781 221.015625 454.238281 223.578125 448.617188 223.578125 C 444.925781 223.578125 441.382812 222.464844 438.367188 220.355469 C 433.601562 217.0625 430.675781 211.46875 430.707031 205.667969 C 430.707031 195.796875 438.742188 187.761719 448.617188 187.761719 C 455.828125 187.761719 462.304688 192.054688 465.117188 198.699219 C 465.386719 199.34375 465.390625 200.070312 465.121094 200.714844 Z M 465.121094 200.714844 " fill-opacity="1" fill-rule="evenodd"/><path fill="#fffffe" d="M 375.675781 327.242188 C 373.003906 327.242188 370.828125 329.417969 370.828125 332.085938 C 370.828125 334.757812 373.003906 336.933594 375.675781 336.933594 C 378.347656 336.933594 380.519531 334.757812 380.519531 332.085938 C 380.519531 329.417969 378.347656 327.242188 375.675781 327.242188 Z M 375.675781 327.242188 " fill-opacity="1" fill-rule="evenodd"/><path fill="#fffffe" d="M 326.578125 327.242188 C 323.90625 327.242188 321.730469 329.417969 321.730469 332.085938 C 321.730469 334.757812 323.90625 336.933594 326.578125 336.933594 C 329.25 336.933594 331.425781 334.757812 331.425781 332.085938 C 331.425781 329.417969 329.25 327.242188 326.578125 327.242188 Z M 326.578125 327.242188 " fill-opacity="1" fill-rule="evenodd"/><path fill="#fffffe" d="M 448.617188 192.976562 C 441.617188 192.976562 435.925781 198.671875 435.925781 205.671875 C 435.925781 206.339844 435.976562 207 436.074219 207.652344 L 459.019531 198.394531 C 456.679688 195.039062 452.824219 192.976562 448.617188 192.976562 Z M 448.617188 192.976562 " fill-opacity="1" fill-rule="evenodd"/><g fill="#ffffff" fill-opacity="1"><g transform="translate(263.435708, 177.167391)"><g><path d="M 24.0625 -30.15625 L 20.703125 -25.9375 L 9.046875 -30.171875 L -2.34375 -15.90625 L 4.359375 -5.453125 L 1.0625 -1.328125 L -23.109375 -39.75 L -18.765625 -45.203125 Z M -17.125 -38.921875 L -4.78125 -19.640625 L 4.84375 -31.6875 L -16.671875 -39.5 Z M -17.125 -38.921875 "/></g></g></g><g fill="#ffffff" fill-opacity="1"><g transform="translate(284.10462, 150.189727)"><g><path d="M 13.515625 -8.5625 C 10.503906 -6.488281 7.710938 -5.738281 5.140625 -6.3125 C 2.566406 -6.894531 0.222656 -8.722656 -1.890625 -11.796875 L -14.109375 -29.5625 L -10.171875 -32.265625 L 1.984375 -14.59375 C 4.753906 -10.550781 8.039062 -9.835938 11.84375 -12.453125 C 14.269531 -14.117188 15.640625 -16.222656 15.953125 -18.765625 C 16.273438 -21.304688 15.21875 -24.351562 12.78125 -27.90625 L 3.375 -41.578125 L 7.3125 -44.28125 L 25.640625 -17.625 L 21.921875 -15.0625 L 19.046875 -19.25 L 18.453125 -19.015625 C 18.648438 -16.765625 18.378906 -14.800781 17.640625 -13.125 C 16.898438 -11.457031 15.523438 -9.9375 13.515625 -8.5625 Z M 13.515625 -8.5625 "/></g></g></g><g fill="#ffffff" fill-opacity="1"><g transform="translate(310.128304, 132.388223)"><g><path d="M 5.25 -2.015625 L -6.328125 -32.21875 L -2.078125 -33.84375 L -0.25 -29.09375 L 0.375 -29.1875 C 0.457031 -33.164062 2.441406 -35.898438 6.328125 -37.390625 C 8.390625 -38.179688 10.078125 -38.394531 11.390625 -38.03125 L 11.6875 -33.8125 L 11.1875 -33.484375 C 9.84375 -33.617188 8.492188 -33.425781 7.140625 -32.90625 C 4.734375 -31.988281 3.226562 -30.375 2.625 -28.0625 C 2.019531 -25.757812 2.492188 -22.582031 4.046875 -18.53125 L 9.71875 -3.71875 Z M 5.25 -2.015625 "/></g></g></g><g fill="#ffffff" fill-opacity="1"><g transform="translate(328.588152, 124.22491)"><g><path d="M 13.296875 -1.28125 C 10.140625 -0.832031 7.554688 -1.300781 5.546875 -2.6875 C 3.546875 -4.082031 2.328125 -6.304688 1.890625 -9.359375 C 1.617188 -11.253906 1.78125 -12.910156 2.375 -14.328125 C 2.96875 -15.753906 4.03125 -16.992188 5.5625 -18.046875 C 7.09375 -19.109375 9.15625 -20.050781 11.75 -20.875 C 14 -21.582031 15.691406 -22.265625 16.828125 -22.921875 C 17.972656 -23.578125 18.707031 -24.238281 19.03125 -24.90625 C 19.363281 -25.570312 19.46875 -26.359375 19.34375 -27.265625 C 19.132812 -28.722656 18.476562 -29.765625 17.375 -30.390625 C 16.269531 -31.015625 14.613281 -31.171875 12.40625 -30.859375 C 10.332031 -30.566406 8.613281 -29.910156 7.25 -28.890625 C 5.882812 -27.878906 4.695312 -26.492188 3.6875 -24.734375 L 3.109375 -24.65625 L 0.3125 -27.578125 C 1.425781 -29.503906 2.953125 -31.125 4.890625 -32.4375 C 6.835938 -33.75 9.144531 -34.597656 11.8125 -34.984375 C 15.59375 -35.523438 18.492188 -35.09375 20.515625 -33.6875 C 22.546875 -32.289062 23.769531 -30.132812 24.1875 -27.21875 L 26.609375 -10.234375 C 26.867188 -8.460938 27.753906 -7.6875 29.265625 -7.90625 C 29.765625 -7.976562 30.234375 -8.125 30.671875 -8.34375 L 31.078125 -8.3125 L 32.109375 -5.109375 C 31.796875 -4.816406 31.363281 -4.566406 30.8125 -4.359375 C 30.257812 -4.160156 29.679688 -4.015625 29.078125 -3.921875 C 27.328125 -3.671875 25.945312 -3.867188 24.9375 -4.515625 C 23.925781 -5.160156 23.1875 -6.21875 22.71875 -7.6875 L 22.09375 -7.65625 C 21.425781 -5.851562 20.378906 -4.421875 18.953125 -3.359375 C 17.523438 -2.304688 15.640625 -1.613281 13.296875 -1.28125 Z M 13.796875 -5.21875 C 15.578125 -5.46875 17.054688 -6.09375 18.234375 -7.09375 C 19.421875 -8.101562 20.253906 -9.398438 20.734375 -10.984375 C 21.222656 -12.578125 21.332031 -14.351562 21.0625 -16.3125 L 20.46875 -20.375 L 19.90625 -20.421875 C 19.257812 -19.804688 18.445312 -19.253906 17.46875 -18.765625 C 16.5 -18.285156 15.113281 -17.78125 13.3125 -17.25 C 11.5 -16.726562 10.082031 -16.125 9.0625 -15.4375 C 8.039062 -14.757812 7.351562 -13.988281 7 -13.125 C 6.65625 -12.257812 6.566406 -11.234375 6.734375 -10.046875 C 7.003906 -8.171875 7.757812 -6.828125 9 -6.015625 C 10.25 -5.203125 11.847656 -4.9375 13.796875 -5.21875 Z M 13.796875 -5.21875 "/></g></g></g><g fill="#ffffff" fill-opacity="1"><g transform="translate(354.527205, 117.35227)"><g><path d="M 18.359375 3.71875 L 11.890625 2.40625 L 10.78125 -41.546875 L 15.671875 -40.546875 L 16.515625 -4.234375 L 17.234375 -4.078125 L 33.71875 -36.890625 L 38.28125 -35.953125 L 40.65625 0.671875 L 41.375 0.8125 L 56.359375 -32.296875 L 61.09375 -31.328125 L 42.984375 8.71875 L 36.484375 7.40625 L 34.1875 -26.1875 L 33.578125 -26.3125 Z M 18.359375 3.71875 "/></g></g></g><g fill="#ffffff" fill-opacity="1"><g transform="translate(402.849865, 129.093937)"><g><path d="M 24.8125 -30.625 C 23.914062 -31.082031 23.328125 -31.738281 23.046875 -32.59375 C 22.773438 -33.445312 22.863281 -34.3125 23.3125 -35.1875 C 23.757812 -36.050781 24.410156 -36.617188 25.265625 -36.890625 C 26.128906 -37.171875 27.007812 -37.082031 27.90625 -36.625 C 28.8125 -36.15625 29.398438 -35.488281 29.671875 -34.625 C 29.941406 -33.769531 29.851562 -32.910156 29.40625 -32.046875 C 28.957031 -31.171875 28.304688 -30.597656 27.453125 -30.328125 C 26.597656 -30.054688 25.71875 -30.15625 24.8125 -30.625 Z M 5 2.578125 L 19.8125 -26.171875 L 24.0625 -23.984375 L 9.25 4.765625 Z M 5 2.578125 "/></g></g></g><g fill="#ffffff" fill-opacity="1"><g transform="translate(414.137797, 133.845398)"><g><path d="M 11.34375 9.4375 C 9.726562 8.195312 8.398438 6.835938 7.359375 5.359375 C 6.316406 3.890625 5.601562 2.421875 5.21875 0.953125 C 4.832031 -0.515625 4.804688 -1.863281 5.140625 -3.09375 L 9.140625 -3.703125 L 9.625 -3.34375 C 9.5 -1.425781 9.78125 0.300781 10.46875 1.84375 C 11.164062 3.382812 12.328125 4.78125 13.953125 6.03125 C 15.859375 7.476562 17.582031 8.207031 19.125 8.21875 C 20.675781 8.238281 21.953125 7.585938 22.953125 6.265625 C 23.722656 5.253906 24.0625 4.191406 23.96875 3.078125 C 23.875 1.960938 23.28125 0.726562 22.1875 -0.625 L 18.671875 -5 C 16.785156 -7.320312 15.773438 -9.492188 15.640625 -11.515625 C 15.503906 -13.546875 16.117188 -15.457031 17.484375 -17.25 C 18.546875 -18.644531 19.828125 -19.582031 21.328125 -20.0625 C 22.828125 -20.550781 24.460938 -20.5625 26.234375 -20.09375 C 28.003906 -19.632812 29.8125 -18.703125 31.65625 -17.296875 C 34.019531 -15.492188 35.628906 -13.738281 36.484375 -12.03125 C 37.347656 -10.332031 37.710938 -8.609375 37.578125 -6.859375 L 33.828125 -6.375 L 33.359375 -6.75 C 33.253906 -8.332031 32.875 -9.703125 32.21875 -10.859375 C 31.570312 -12.015625 30.582031 -13.101562 29.25 -14.125 C 27.5625 -15.414062 26.035156 -16.101562 24.671875 -16.1875 C 23.304688 -16.269531 22.1875 -15.734375 21.3125 -14.578125 C 20.507812 -13.535156 20.179688 -12.453125 20.328125 -11.328125 C 20.484375 -10.203125 21.203125 -8.835938 22.484375 -7.234375 L 26 -2.96875 C 27.820312 -0.726562 28.757812 1.382812 28.8125 3.375 C 28.875 5.363281 28.195312 7.28125 26.78125 9.125 C 25.632812 10.632812 24.257812 11.691406 22.65625 12.296875 C 21.0625 12.898438 19.296875 12.96875 17.359375 12.5 C 15.429688 12.039062 13.425781 11.019531 11.34375 9.4375 Z M 11.34375 9.4375 "/></g></g></g><g fill="#ffffff" fill-opacity="1"><g transform="translate(434.275246, 147.717754)"><g><path d="M 3.453125 4.4375 L 39.203125 -23.421875 L 42.140625 -19.65625 L 28.265625 -8.84375 L 28.578125 -8.28125 C 32.796875 -8.644531 36.242188 -7.109375 38.921875 -3.671875 C 41.316406 -0.597656 42.265625 2.234375 41.765625 4.828125 C 41.273438 7.429688 39.40625 10 36.15625 12.53125 L 19.734375 25.328125 L 16.796875 21.5625 L 33.125 8.84375 C 34.664062 7.644531 35.75 6.484375 36.375 5.359375 C 37 4.234375 37.203125 3.085938 36.984375 1.921875 C 36.765625 0.765625 36.132812 -0.476562 35.09375 -1.8125 C 33.300781 -4.125 31.109375 -5.398438 28.515625 -5.640625 C 25.921875 -5.878906 22.910156 -4.664062 19.484375 -2 L 6.390625 8.203125 Z M 3.453125 4.4375 "/></g></g></g><g fill="#ffffff" fill-opacity="1"><g transform="translate(457.941109, 352.849229)"><g><path d="M -24.0625 30.15625 L -20.703125 25.9375 L -9.046875 30.171875 L 2.34375 15.90625 L -4.359375 5.453125 L -1.0625 1.328125 L 23.109375 39.75 L 18.765625 45.203125 Z M 17.125 38.921875 L 4.78125 19.640625 L -4.84375 31.6875 L 16.671875 39.5 Z M 17.125 38.921875 "/></g></g></g><g fill="#ffffff" fill-opacity="1"><g transform="translate(437.272129, 379.826875)"><g><path d="M -13.515625 8.5625 C -10.503906 6.488281 -7.710938 5.738281 -5.140625 6.3125 C -2.566406 6.894531 -0.222656 8.722656 1.890625 11.796875 L 14.109375 29.5625 L 10.171875 32.265625 L -1.984375 14.59375 C -4.753906 10.550781 -8.039062 9.835938 -11.84375 12.453125 C -14.269531 14.117188 -15.640625 16.222656 -15.953125 18.765625 C -16.273438 21.304688 -15.21875 24.351562 -12.78125 27.90625 L -3.375 41.578125 L -7.3125 44.28125 L -25.640625 17.625 L -21.921875 15.0625 L -19.046875 19.25 L -18.453125 19.015625 C -18.648438 16.765625 -18.378906 14.800781 -17.640625 13.125 C -16.898438 11.457031 -15.523438 9.9375 -13.515625 8.5625 Z M -13.515625 8.5625 "/></g></g></g><g fill="#ffffff" fill-opacity="1"><g transform="translate(411.248467, 397.628357)"><g><path d="M -5.25 2.015625 L 6.328125 32.21875 L 2.078125 33.84375 L 0.25 29.09375 L -0.375 29.1875 C -0.457031 33.164062 -2.441406 35.898438 -6.328125 37.390625 C -8.390625 38.179688 -10.078125 38.394531 -11.390625 38.03125 L -11.6875 33.8125 L -11.1875 33.484375 C -9.84375 33.617188 -8.492188 33.425781 -7.140625 32.90625 C -4.734375 31.988281 -3.226562 30.375 -2.625 28.0625 C -2.019531 25.757812 -2.492188 22.582031 -4.046875 18.53125 L -9.71875 3.71875 Z M -5.25 2.015625 "/></g></g></g><g fill="#ffffff" fill-opacity="1"><g transform="translate(392.788624, 405.79171)"><g><path d="M -13.296875 1.28125 C -10.140625 0.832031 -7.554688 1.300781 -5.546875 2.6875 C -3.546875 4.082031 -2.328125 6.304688 -1.890625 9.359375 C -1.617188 11.253906 -1.78125 12.910156 -2.375 14.328125 C -2.96875 15.753906 -4.03125 16.992188 -5.5625 18.046875 C -7.09375 19.109375 -9.15625 20.050781 -11.75 20.875 C -14 21.582031 -15.691406 22.265625 -16.828125 22.921875 C -17.972656 23.578125 -18.707031 24.238281 -19.03125 24.90625 C -19.363281 25.570312 -19.46875 26.359375 -19.34375 27.265625 C -19.132812 28.722656 -18.476562 29.765625 -17.375 30.390625 C -16.269531 31.015625 -14.613281 31.171875 -12.40625 30.859375 C -10.332031 30.566406 -8.613281 29.910156 -7.25 28.890625 C -5.882812 27.878906 -4.695312 26.492188 -3.6875 24.734375 L -3.109375 24.65625 L -0.3125 27.578125 C -1.425781 29.503906 -2.953125 31.125 -4.890625 32.4375 C -6.835938 33.75 -9.144531 34.597656 -11.8125 34.984375 C -15.59375 35.523438 -18.492188 35.09375 -20.515625 33.6875 C -22.546875 32.289062 -23.769531 30.132812 -24.1875 27.21875 L -26.609375 10.234375 C -26.867188 8.460938 -27.753906 7.6875 -29.265625 7.90625 C -29.765625 7.976562 -30.234375 8.125 -30.671875 8.34375 L -31.078125 8.3125 L -32.109375 5.109375 C -31.796875 4.816406 -31.363281 4.566406 -30.8125 4.359375 C -30.257812 4.160156 -29.679688 4.015625 -29.078125 3.921875 C -27.328125 3.671875 -25.945312 3.867188 -24.9375 4.515625 C -23.925781 5.160156 -23.1875 6.21875 -22.71875 7.6875 L -22.09375 7.65625 C -21.425781 5.851562 -20.378906 4.421875 -18.953125 3.359375 C -17.523438 2.304688 -15.640625 1.613281 -13.296875 1.28125 Z M -13.796875 5.21875 C -15.578125 5.46875 -17.054688 6.09375 -18.234375 7.09375 C -19.421875 8.101562 -20.253906 9.398438 -20.734375 10.984375 C -21.222656 12.578125 -21.332031 14.351562 -21.0625 16.3125 L -20.46875 20.375 L -19.90625 20.421875 C -19.257812 19.804688 -18.445312 19.253906 -17.46875 18.765625 C -16.5 18.285156 -15.113281 17.78125 -13.3125 17.25 C -11.5 16.726562 -10.082031 16.125 -9.0625 15.4375 C -8.039062 14.757812 -7.351562 13.988281 -7 13.125 C -6.65625 12.257812 -6.566406 11.234375 -6.734375 10.046875 C -7.003906 8.171875 -7.757812 6.828125 -9 6.015625 C -10.25 5.203125 -11.847656 4.9375 -13.796875 5.21875 Z M -13.796875 5.21875 "/></g></g></g><g fill="#ffffff" fill-opacity="1"><g transform="translate(366.849571, 412.664337)"><g><path d="M -18.359375 -3.71875 L -11.890625 -2.40625 L -10.78125 41.546875 L -15.671875 40.546875 L -16.515625 4.234375 L -17.234375 4.078125 L -33.71875 36.890625 L -38.28125 35.953125 L -40.65625 -0.671875 L -41.375 -0.8125 L -56.359375 32.296875 L -61.09375 31.328125 L -42.984375 -8.71875 L -36.484375 -7.40625 L -34.1875 26.1875 L -33.578125 26.3125 Z M -18.359375 -3.71875 "/></g></g></g><g fill="#ffffff" fill-opacity="1"><g transform="translate(318.526945, 400.92269)"><g><path d="M -24.8125 30.625 C -23.914062 31.082031 -23.328125 31.738281 -23.046875 32.59375 C -22.773438 33.445312 -22.863281 34.3125 -23.3125 35.1875 C -23.757812 36.050781 -24.410156 36.617188 -25.265625 36.890625 C -26.128906 37.171875 -27.007812 37.082031 -27.90625 36.625 C -28.8125 36.15625 -29.398438 35.488281 -29.671875 34.625 C -29.941406 33.769531 -29.851562 32.910156 -29.40625 32.046875 C -28.957031 31.171875 -28.304688 30.597656 -27.453125 30.328125 C -26.597656 30.054688 -25.71875 30.15625 -24.8125 30.625 Z M -5 -2.578125 L -19.8125 26.171875 L -24.0625 23.984375 L -9.25 -4.765625 Z M -5 -2.578125 "/></g></g></g><g fill="#ffffff" fill-opacity="1"><g transform="translate(307.238956, 396.171232)"><g><path d="M -11.34375 -9.4375 C -9.726562 -8.195312 -8.398438 -6.835938 -7.359375 -5.359375 C -6.316406 -3.890625 -5.601562 -2.421875 -5.21875 -0.953125 C -4.832031 0.515625 -4.804688 1.863281 -5.140625 3.09375 L -9.140625 3.703125 L -9.625 3.34375 C -9.5 1.425781 -9.78125 -0.300781 -10.46875 -1.84375 C -11.164062 -3.382812 -12.328125 -4.78125 -13.953125 -6.03125 C -15.859375 -7.476562 -17.582031 -8.207031 -19.125 -8.21875 C -20.675781 -8.238281 -21.953125 -7.585938 -22.953125 -6.265625 C -23.722656 -5.253906 -24.0625 -4.191406 -23.96875 -3.078125 C -23.875 -1.960938 -23.28125 -0.726562 -22.1875 0.625 L -18.671875 5 C -16.785156 7.320312 -15.773438 9.492188 -15.640625 11.515625 C -15.503906 13.546875 -16.117188 15.457031 -17.484375 17.25 C -18.546875 18.644531 -19.828125 19.582031 -21.328125 20.0625 C -22.828125 20.550781 -24.460938 20.5625 -26.234375 20.09375 C -28.003906 19.632812 -29.8125 18.703125 -31.65625 17.296875 C -34.019531 15.492188 -35.628906 13.738281 -36.484375 12.03125 C -37.347656 10.332031 -37.710938 8.609375 -37.578125 6.859375 L -33.828125 6.375 L -33.359375 6.75 C -33.253906 8.332031 -32.875 9.703125 -32.21875 10.859375 C -31.570312 12.015625 -30.582031 13.101562 -29.25 14.125 C -27.5625 15.414062 -26.035156 16.101562 -24.671875 16.1875 C -23.304688 16.269531 -22.1875 15.734375 -21.3125 14.578125 C -20.507812 13.535156 -20.179688 12.453125 -20.328125 11.328125 C -20.484375 10.203125 -21.203125 8.835938 -22.484375 7.234375 L -26 2.96875 C -27.820312 0.726562 -28.757812 -1.382812 -28.8125 -3.375 C -28.875 -5.363281 -28.195312 -7.28125 -26.78125 -9.125 C -25.632812 -10.632812 -24.257812 -11.691406 -22.65625 -12.296875 C -21.0625 -12.898438 -19.296875 -12.96875 -17.359375 -12.5 C -15.429688 -12.039062 -13.425781 -11.019531 -11.34375 -9.4375 Z M -11.34375 -9.4375 "/></g></g></g><g fill="#ffffff" fill-opacity="1"><g transform="translate(287.101544, 382.298828)"><g><path d="M -3.453125 -4.4375 L -39.203125 23.421875 L -42.140625 19.65625 L -28.265625 8.84375 L -28.578125 8.28125 C -32.796875 8.644531 -36.242188 7.109375 -38.921875 3.671875 C -41.316406 0.597656 -42.265625 -2.234375 -41.765625 -4.828125 C -41.273438 -7.429688 -39.40625 -10 -36.15625 -12.53125 L -19.734375 -25.328125 L -16.796875 -21.5625 L -33.125 -8.84375 C -34.664062 -7.644531 -35.75 -6.484375 -36.375 -5.359375 C -37 -4.234375 -37.203125 -3.085938 -36.984375 -1.921875 C -36.765625 -0.765625 -36.132812 0.476562 -35.09375 1.8125 C -33.300781 4.125 -31.109375 5.398438 -28.515625 5.640625 C -25.921875 5.878906 -22.910156 4.664062 -19.484375 2 L -6.390625 -8.203125 Z M -3.453125 -4.4375 "/></g></g></g></svg>